<?xml version="1.0" standalone="no"?>
<!DOCTYPE svg PUBLIC "-//W3C//DTD SVG 20010904//EN"
 "http://www.w3.org/TR/2001/REC-SVG-20010904/DTD/svg10.dtd">
<svg version="1.0" xmlns="http://www.w3.org/2000/svg"
 width="260.000000pt" height="260.000000pt" viewBox="0 0 260.000000 260.000000"
 preserveAspectRatio="xMidYMid meet">
<metadata>
Created by potrace 1.11, written by Peter Selinger 2001-2013
</metadata>
<g transform="translate(0.000000,260.000000) scale(0.100000,-0.100000)"
fill="#000000" stroke="none">
<path d="M1913 1963 c-38 -7 -73 -59 -73 -108 0 -81 67 -127 150 -105 48 13
70 46 70 105 0 58 -22 92 -69 105 -37 10 -40 10 -78 3z"/>
<path d="M570 1520 l0 -80 231 -2 231 -3 -246 -340 -245 -340 -1 -62 0 -63
365 0 365 0 0 80 0 80 -244 2 -244 3 239 330 239 330 0 73 0 72 -345 0 -345 0
0 -80z"/>
<path d="M1850 1115 l0 -485 100 0 100 0 0 485 0 485 -100 0 -100 0 0 -485z"/>
</g>
</svg>
